<svg xmlns="http://www.w3.org/2000/svg" xmlns:xlink="http://www.w3.org/1999/xlink" viewBox="0 0 64 64" enable-background="new 0 0 64 64">

<defs>
	<style>
		.x        { display: none   }
		.x:target { display: inline }
	</style>
</defs>

<g class="x" id="emoji-1f600"><circle cx="32" cy="32" r="30" fill="#ffdd67"/><path d="m49.7 34.4c-.4-.5-1.1-.4-1.9-.4-15.8 0-15.8 0-31.6 0-.8 0-1.5-.1-1.9.4-3.9 5 .7 19.6 17.7 19.6 17 0 21.6-14.6 17.7-19.6" fill="#664e27"/><path d="m33.8 41.7c-.6 0-1.5.5-1.1 2 .2.7 1.2 1.6 1.2 2.8 0 2.4-3.8 2.4-3.8 0 0-1.2 1-2 1.2-2.8.3-1.4-.6-2-1.1-2-1.6 0-4.1 1.7-4.1 4.6 0 3.2 2.7 5.8 6 5.8 3.3 0 6-2.6 6-5.8-.1-2.8-2.7-4.5-4.3-4.6" fill="#4c3526"/><path d="m24.3 50.7c2.2 1 4.8 1.5 7.7 1.5 2.9 0 5.5-.6 7.7-1.5-2.1-1.1-4.7-1.7-7.7-1.7s-5.6.6-7.7 1.7" fill="#ff717f"/><path d="m47 36c-15 0-15 0-29.9 0-2.1 0-2.1 4-.1 4 10.4 0 19.6 0 30 0 2 0 2-4 0-4" fill="#fff"/><g fill="#664e27"><circle cx="20.5" cy="23" r="5"/><circle cx="43.5" cy="23" r="5"/></g></g>

<g class="x" id="emoji-1f601"><circle cx="32" cy="32" r="30" fill="#ffdd67"/><g fill="#664e27"><path d="m28.5 27.9c-1.9-5.1-4.7-7.7-7.5-7.7s-5.6 2.6-7.5 7.7c-.2.5.8 1.4 1.3.9 1.8-1.9 4-2.7 6.2-2.7 2.2 0 4.4.8 6.2 2.7.6.6 1.5-.4 1.3-.9"/><path d="m50.4 27.9c-1.9-5.1-4.7-7.7-7.5-7.7s-5.6 2.6-7.5 7.7c-.2.5.8 1.4 1.3.9 1.8-1.9 4-2.7 6.2-2.7s4.4.8 6.2 2.7c.5.6 1.5-.4 1.3-.9"/><path d="m54 37.4c0-.8-.6-1.8-2.4-2.1-4.4-.6-11.1-1.3-19.6-1.3-8.5 0-15.2.7-19.6 1.3-1.7.3-2.4 1.3-2.4 2.1 0 9.6 3.5 12.6 17.8 12.6h8.4c14.3 0 17.8-3 17.8-12.6"/></g><g fill="#fff"><path d="m48.9 38.2c.2-.5-.1-1-.5-1.1 0 0-7.4-1.1-16.4-1.1-9 0-16.4 1.1-16.4 1.1-.5.1-.7.6-.5 1.1l1.1 2.9c.2.5.8.9 1.3.9h29.1c.5 0 1.1-.4 1.3-.9l1-2.9"/><path d="m32 48c6.4 0 15.5 0 15.2-2.1 0-.4-.1-.8-.3-1.3-.2-.5-.3-.7-1.4-.7-2.4 0-25.3 0-27.1 0-1.1 0-1.2.1-1.4.7-.1.5-.2.9-.3 1.3-.2 2.1 8.9 2.1 15.3 2.1"/></g></g>

</svg>